# xmcd
#
# Track frame offsets:
#	150
#	18907
#	40262
#	62410
#	81970
#	108425
#	131267
#	155727
#	177345
#	200527
#
# Disc length: 3017 seconds
#
# Revision: 2406480580
# Processed by: cddbd v1.5.2PL0 Copyright (c) Steve Scherf et al.
# Submitted via: EZCDAudioConverter 8.0.2.1
#
DISCID=7d0bc70a
DTITLE=Hương Lan - Hát Cho Tuổi Học Trò
DYEAR=1996
DGENRE=
TTITLE0=Anh cứ hẹn
TTITLE1=Mùi hoa Dạ Lý
TTITLE2=Đành quên sao
TTITLE3=Hình bóng cũ
TTITLE4=Hoa nở về đêm
TTITLE5=Thế rồi một mùa hè
TTITLE6=Còn chi nữa
TTITLE7=Má hồng Đà Lạt
TTITLE8=Mong manh
TTITLE9=Bến đợi đò trông
EXTD=
EXTT0=
EXTT1=
EXTT2=
EXTT3=
EXTT4=
EXTT5=
EXTT6=
EXTT7=
EXTT8=
EXTT9=
PLAYORDER=
